# xmcd CD Database Entry
#
# Track frame offsets:
# 150
# 22944
# 39266
# 62261
# 87243
# 123485
# 143099
# 176864
# 200643
# 216620
# 236710
# 258939
#
# Disc length: 3746 seconds
#
# Revision: 2
# Processed by: cddbd v1.4PL0 Copyright (c) Steve Scherf et al.
# Submitted via: tcd 2.0b
#
DISCID=a90ea00c
DTITLE=Rainbow - Rainbow Familly Alubum
DYEAR=1900
DGENRE=
TTITLE0=Speed King
TTITLE1=Dance With the Devil
TTITLE2=Wonderworld
TTITLE3=Kill the King
TTITLE4=Sixteenth Century Green Sleeves
TTITLE5=Am I
TTITLE6=1st Ring Made of Fire
TTITLE7=I Would Never Leave
TTITLE8=Fae Down
TTITLE9=Fine, Fine Day
TTITLE10=Will You Be Home Tonight
TTITLE11=Don't Talk To Strangers
EXTD=
EXTT0=
EXTT1=
EXTT2=
EXTT3=
EXTT4=
EXTT5=
EXTT6=
EXTT7=
EXTT8=
EXTT9=
EXTT10=
EXTT11=
PLAYORDER=
